HIERARCHY
ROOT hip
{
  OFFSET 0 90.174 2.4664
  CHANNELS 6 Xposition Yposition Zposition Zrotation Xrotation Yrotation
  JOINT abdomen
  {
    OFFSET 0 -1.186 -1.5018
    CHANNELS 6 Xposition Yposition Zposition Zrotation Xrotation Yrotation
    JOINT abdomen2
    {
      OFFSET 0 9.964 0.2134
      CHANNELS 6 Xposition Yposition Zposition Zrotation Xrotation Yrotation
      JOINT chest
      {
        OFFSET 0 13.134 -3.2573
        CHANNELS 6 Xposition Yposition Zposition Zrotation Xrotation Yrotation
        JOINT neck
        {
          OFFSET 0 20.686 -1.6905
          CHANNELS 6 Xposition Yposition Zposition Zrotation Xrotation Yrotation
          JOINT head
          {
            OFFSET 0 7.238 -0.1237
            CHANNELS 6 Xposition Yposition Zposition Zrotation Xrotation Yrotation
            End Site
            {
              OFFSET 0 0 0
            }
          }
        }
        JOINT lCollar
        {
          OFFSET 1.7069 20.075 5.0056
          CHANNELS 6 Xposition Yposition Zposition Zrotation Xrotation Yrotation
          JOINT lShldr
          {
            OFFSET 13.6458 -0.047 -4.849
            CHANNELS 6 Xposition Yposition Zposition Zrotation Xrotation Yrotation
            JOINT lForeArm
            {
              OFFSET 28.3255 -0.9759 2.2888
              CHANNELS 6 Xposition Yposition Zposition Zrotation Xrotation Yrotation
              JOINT lHand
              {
                OFFSET 22.1583 -0.53 10.8316
                CHANNELS 6 Xposition Yposition Zposition Zrotation Xrotation Yrotation
                JOINT lThumb1
                {
                  OFFSET 0.786 0.112 2.5817
                  CHANNELS 6 Xposition Yposition Zposition Zrotation Xrotation Yrotation
                  JOINT lThumb2
                  {
                    OFFSET 0.3601 -0.878 4.2331
                    CHANNELS 6 Xposition Yposition Zposition Zrotation Xrotation Yrotation
                    JOINT lThumb2_End
                    {
                      OFFSET 1.8127 -1.216 2.2227
                      CHANNELS 6 Xposition Yposition Zposition Zrotation Xrotation Yrotation
                      End Site
                      {
                        OFFSET 0.0181 -0.0122 0.0222
                      }
                    }
                  }
                }
                JOINT lCarpal1
                {
                  OFFSET 0.9571 1.114 1.7695
                  CHANNELS 6 Xposition Yposition Zposition Zrotation Xrotation Yrotation
                  JOINT lIndex1
                  {
                    OFFSET 4.1246 0.487 4.1451
                    CHANNELS 6 Xposition Yposition Zposition Zrotation Xrotation Yrotation
                    JOINT lIndex2
                    {
                      OFFSET 3.4052 -1.454 2.7682
                      CHANNELS 6 Xposition Yposition Zposition Zrotation Xrotation Yrotation
                      JOINT lIndex2_End
                      {
                        OFFSET 1.4531 -1.795 1.2713
                        CHANNELS 6 Xposition Yposition Zposition Zrotation Xrotation Yrotation
                        End Site
                        {
                          OFFSET 0.0145 -0.0179 0.0127
                        }
                      }
                    }
                  }
                  JOINT lMid1
                  {
                    OFFSET 5.6954 0.21 2.1184
                    CHANNELS 6 Xposition Yposition Zposition Zrotation Xrotation Yrotation
                    JOINT lMid2
                    {
                      OFFSET 3.9766 -1.54 2.3863
                      CHANNELS 6 Xposition Yposition Zposition Zrotation Xrotation Yrotation
                      JOINT lMid2_End
                      {
                        OFFSET 1.4042 -1.926 1.125
                        CHANNELS 6 Xposition Yposition Zposition Zrotation Xrotation Yrotation
                        End Site
                        {
                          OFFSET 0.014 -0.0193 0.0113
                        }
                      }
                    }
                  }
                }
                JOINT lCarpal2
                {
                  OFFSET 2.0956 0.66 -0.3894
                  CHANNELS 6 Xposition Yposition Zposition Zrotation Xrotation Yrotation
                  JOINT lRing1
                  {
                    OFFSET 5.0395 -0.09 2.4971
                    CHANNELS 6 Xposition Yposition Zposition Zrotation Xrotation Yrotation
                    JOINT lRing2
                    {
                      OFFSET 3.7921 -1.552 1.4806
                      CHANNELS 6 Xposition Yposition Zposition Zrotation Xrotation Yrotation
                      JOINT lRing2_End
                      {
                        OFFSET 1.4655 -1.808 0.9609
                        CHANNELS 6 Xposition Yposition Zposition Zrotation Xrotation Yrotation
                        End Site
                        {
                          OFFSET 0.0147 -0.0181 0.0096
                        }
                      }
                    }
                  }
                  JOINT lPinky1
                  {
                    OFFSET 4.9141 -1.269 0.3591
                    CHANNELS 6 Xposition Yposition Zposition Zrotation Xrotation Yrotation
                    JOINT lPinky2
                    {
                      OFFSET 3.1477 -1.685 0.8462
                      CHANNELS 6 Xposition Yposition Zposition Zrotation Xrotation Yrotation
                      JOINT lPinky2_End
                      {
                        OFFSET 0.8055 -1.585 0.7955
                        CHANNELS 6 Xposition Yposition Zposition Zrotation Xrotation Yrotation
                        End Site
                        {
                          OFFSET 0.0081 -0.0158 0.008
                        }
                      }
                    }
                  }
                }
              }
            }
          }
        }
        JOINT rCollar
        {
          OFFSET -1.7069 20.075 5.0056
          CHANNELS 6 Xposition Yposition Zposition Zrotation Xrotation Yrotation
          JOINT rShldr
          {
            OFFSET -13.6458 -0.047 -4.849
            CHANNELS 6 Xposition Yposition Zposition Zrotation Xrotation Yrotation
            JOINT rForeArm
            {
              OFFSET -28.3255 -0.9759 2.2888
              CHANNELS 6 Xposition Yposition Zposition Zrotation Xrotation Yrotation
              JOINT rHand
              {
                OFFSET -22.1583 -0.53 10.8316
                CHANNELS 6 Xposition Yposition Zposition Zrotation Xrotation Yrotation
                JOINT rThumb1
                {
                  OFFSET -0.786 0.112 2.5817
                  CHANNELS 6 Xposition Yposition Zposition Zrotation Xrotation Yrotation
                  JOINT rThumb2
                  {
                    OFFSET -0.3601 -0.878 4.2331
                    CHANNELS 6 Xposition Yposition Zposition Zrotation Xrotation Yrotation
                    JOINT rThumb2_End
                    {
                      OFFSET -1.8127 -1.216 2.2227
                      CHANNELS 6 Xposition Yposition Zposition Zrotation Xrotation Yrotation
                      End Site
                      {
                        OFFSET -0.0181 -0.0122 0.0222
                      }
                    }
                  }
                }
                JOINT rCarpal1
                {
                  OFFSET -0.9571 1.114 1.7695
                  CHANNELS 6 Xposition Yposition Zposition Zrotation Xrotation Yrotation
                  JOINT rIndex1
                  {
                    OFFSET -4.1246 0.487 4.1451
                    CHANNELS 6 Xposition Yposition Zposition Zrotation Xrotation Yrotation
                    JOINT rIndex2
                    {
                      OFFSET -3.4052 -1.454 2.7682
                      CHANNELS 6 Xposition Yposition Zposition Zrotation Xrotation Yrotation
                      JOINT rIndex2_End
                      {
                        OFFSET -1.4531 -1.795 1.2713
                        CHANNELS 6 Xposition Yposition Zposition Zrotation Xrotation Yrotation
                        End Site
                        {
                          OFFSET -0.0145 -0.018 0.0127
                        }
                      }
                    }
                  }
                  JOINT rMid1
                  {
                    OFFSET -5.6954 0.21 2.1184
                    CHANNELS 6 Xposition Yposition Zposition Zrotation Xrotation Yrotation
                    JOINT rMid2
                    {
                      OFFSET -3.9766 -1.54 2.3863
                      CHANNELS 6 Xposition Yposition Zposition Zrotation Xrotation Yrotation
                      JOINT rMid2_End
                      {
                        OFFSET -1.4042 -1.926 1.125
                        CHANNELS 6 Xposition Yposition Zposition Zrotation Xrotation Yrotation
                        End Site
                        {
                          OFFSET -0.014 -0.0193 0.0113
                        }
                      }
                    }
                  }
                }
                JOINT rCarpal2
                {
                  OFFSET -2.0956 0.66 -0.3894
                  CHANNELS 6 Xposition Yposition Zposition Zrotation Xrotation Yrotation
                  JOINT rRing1
                  {
                    OFFSET -5.0395 -0.09 2.4971
                    CHANNELS 6 Xposition Yposition Zposition Zrotation Xrotation Yrotation
                    JOINT rRing2
                    {
                      OFFSET -3.7921 -1.552 1.4806
                      CHANNELS 6 Xposition Yposition Zposition Zrotation Xrotation Yrotation
                      JOINT rRing2_End
                      {
                        OFFSET -1.4655 -1.808 0.9609
                        CHANNELS 6 Xposition Yposition Zposition Zrotation Xrotation Yrotation
                        End Site
                        {
                          OFFSET -0.0147 -0.0181 0.0096
                        }
                      }
                    }
                  }
                  JOINT rPinky1
                  {
                    OFFSET -4.9141 -1.269 0.3592
                    CHANNELS 6 Xposition Yposition Zposition Zrotation Xrotation Yrotation
                    JOINT rPinky2
                    {
                      OFFSET -3.1477 -1.685 0.8462
                      CHANNELS 6 Xposition Yposition Zposition Zrotation Xrotation Yrotation
                      JOINT rPinky2_End
                      {
                        OFFSET -0.8055 -1.585 0.7955
                        CHANNELS 6 Xposition Yposition Zposition Zrotation Xrotation Yrotation
                        End Site
                        {
                          OFFSET -0.0081 -0.0158 0.008
                        }
                      }
                    }
                  }
                }
              }
            }
          }
        }
      }
    }
  }
  JOINT lThigh
  {
    OFFSET 8.367 -8.2066 0.5982
    CHANNELS 6 Xposition Yposition Zposition Zrotation Xrotation Yrotation
    JOINT lShin
    {
      OFFSET 2.1923 -43.463 -0.4932
      CHANNELS 6 Xposition Yposition Zposition Zrotation Xrotation Yrotation
      JOINT lFoot
      {
        OFFSET 0.7333 -45.8593 -2.6451
        CHANNELS 6 Xposition Yposition Zposition Zrotation Xrotation Yrotation
        End Site
        {
          OFFSET 2.6618 -4.2699 12.3931
        }
      }
    }
  }
  JOINT rThigh
  {
    OFFSET -8.367 -8.2066 0.5982
    CHANNELS 6 Xposition Yposition Zposition Zrotation Xrotation Yrotation
    JOINT rShin
    {
      OFFSET -2.1923 -43.463 -0.4931
      CHANNELS 6 Xposition Yposition Zposition Zrotation Xrotation Yrotation
      JOINT rFoot
      {
        OFFSET -0.7333 -45.8593 -2.6451
        CHANNELS 6 Xposition Yposition Zposition Zrotation Xrotation Yrotation
        End Site
        {
          OFFSET -2.6618 -4.2699 12.3931
        }
      }
    }
  }
}
MOTION
Frames:	4
Frame Time:	0.0333333
0 90.174 2.4664 0 0 -0 0 -1.186 -1.5018 0 0 -0 0 9.964 0.2134 0 0 -0 0 13.134 -3.2573 0 0 -0 0 20.686 -1.6905 0 0 -0 0 7.238 -0.1237 0 0 -0 1.7069 20.075 5.0056 0 0 -0 13.6458 -0.047 -4.849 1.66051 0.0835086 5.75766 28.3255 -0.9759 2.2888 -0.0175111 0.895433 15.7816 22.1583 -0.53 10.8316 7.95139e-016 -1.98785e-016 -0 0.786 0.112 2.5817 5.46658e-016 -3.97569e-016 -0 0.3601 -0.878 4.2331 5.96354e-016 0 -0 1.8127 -1.216 2.2227 3.97569e-016 1.98785e-016 9.54166e-015 0.9571 1.114 1.7695 1.49089e-016 -3.97569e-016 -0 4.1246 0.487 4.1451 6.4605e-016 0 3.18055e-015 3.4052 -1.454 2.7682 5.96354e-016 0 3.18055e-015 1.4531 -1.795 1.2713 8.94531e-016 -1.98785e-016 6.36111e-015 5.6954 0.21 2.1184 6.4605e-016 0 3.18055e-015 3.9766 -1.54 2.3863 5.96354e-016 0 3.18055e-015 1.4042 -1.926 1.125 8.94531e-016 -1.98785e-016 6.36111e-015 2.0956 0.66 -0.3894 1.49089e-016 -3.97569e-016 -0 5.0395 -0.09 2.4971 6.4605e-016 0 3.18055e-015 3.7921 -1.552 1.4806 5.96354e-016 0 3.18055e-015 1.4655 -1.808 0.9609 8.94531e-016 -1.98785e-016 6.36111e-015 4.9141 -1.269 0.3591 6.4605e-016 0 3.18055e-015 3.1477 -1.685 0.8462 5.96354e-016 0 3.18055e-015 0.8055 -1.585 0.7955 8.94531e-016 -1.98785e-016 6.36111e-015 -1.7069 20.075 5.0056 0 0 -0 -13.6458 -0.047 -4.849 -1.4496 0.0636048 -5.0245 -28.3255 -0.9759 2.2888 -1.74811 1.20616 -16.8394 -22.1583 -0.53 10.8316 -1.19271e-015 1.98785e-016 -3.18055e-015 -0.786 0.112 2.5817 -3.97569e-016 1.98785e-016 -3.18055e-015 -0.3601 -0.878 4.2331 -2.98177e-016 1.98785e-016 -3.18055e-015 -1.8127 -1.216 2.2227 -2.98177e-016 3.97569e-016 -0 -0.9571 1.114 1.7695 4.96962e-016 0 -6.36111e-015 -4.1246 0.487 4.1451 -9.93923e-017 3.97569e-016 -0 -3.4052 -1.454 2.7682 -8.94531e-016 5.96354e-016 -0 -1.4531 -1.795 1.2713 -3.97569e-016 3.97569e-016 -0 -5.6954 0.21 2.1184 -9.93923e-017 3.97569e-016 -0 -3.9766 -1.54 2.3863 -8.94531e-016 5.96354e-016 -0 -1.4042 -1.926 1.125 -3.97569e-016 3.97569e-016 -0 -2.0956 0.66 -0.3894 4.96962e-016 0 -6.36111e-015 -5.0395 -0.09 2.4971 -9.93923e-017 3.97569e-016 -0 -3.7921 -1.552 1.4806 -8.94531e-016 5.96354e-016 -0 -1.4655 -1.808 0.9609 -3.97569e-016 3.97569e-016 -0 -4.9141 -1.269 0.3592 -9.93923e-017 3.97569e-016 -0 -3.1477 -1.685 0.8462 -8.94531e-016 5.96354e-016 -0 -0.8055 -1.585 0.7955 -3.97569e-016 3.97569e-016 -0 8.367 -8.2066 0.5982 -4.66115 -1.03232 0.120763 2.1923 -43.463 -0.4932 0.00990601 1.55097 0.177175 0.7333 -45.8593 -2.6451 4.65196 -0.54114 -0.255042 -8.367 -8.2066 0.5982 4.66115 -1.03222 -0.120763 -2.1923 -43.463 -0.4931 -0.00990459 1.5509 -0.177176 -0.7333 -45.8593 -2.6451 -4.65196 -0.541171 0.255041 
0.000136816 44.0019 9.45623 0 50.6233 -0 0 -1.186 -1.5018 -0.00644406 -2.72767 -0.0187343 1.73472e-018 9.964 0.2134 -0.0138057 -5.45536 -0.0378406 -1.38778e-017 13.134 -3.2573 -0.0138057 -5.45536 -0.0378406 -1.38778e-017 20.686 -1.6905 7.79799 8.13027 12.2637 0 7.238 -0.1237 -6.0789 10.1343 24.2813 1.7069 20.075 5.0056 0.283996 -0.118225 -5.02768 13.6458 -0.047 -4.849 -2.91211 -14.9212 -12.1987 28.3255 -0.9759 2.2888 19.3384 2.23077 -51.8986 22.1583 -0.53 10.8316 4.66893 -2.00673 -0.747057 0.786 0.112 2.5817 -4.77083e-015 8.74653e-015 3.18055e-015 0.3601 -0.878 4.2331 6.78521e-007 4.96074e-007 1.46163e-007 1.8127 -1.216 2.2227 1.59028e-015 6.36111e-015 -1.59028e-015 0.9571 1.114 1.7695 -1.59028e-015 1.59028e-015 3.18055e-015 4.1246 0.487 4.1451 -3.18055e-015 1.78906e-014 9.54166e-015 3.4052 -1.454 2.7682 6.78521e-007 4.96074e-007 1.46163e-007 1.4531 -1.795 1.2713 1.59028e-015 3.57812e-015 -0 5.6954 0.21 2.1184 -3.18055e-015 1.78906e-014 9.54166e-015 3.9766 -1.54 2.3863 6.78521e-007 4.96074e-007 1.46163e-007 1.4042 -1.926 1.125 1.59028e-015 3.57812e-015 -0 2.0956 0.66 -0.3894 -1.59028e-015 1.59028e-015 3.18055e-015 5.0395 -0.09 2.4971 -3.18055e-015 1.78906e-014 9.54166e-015 3.7921 -1.552 1.4806 6.78521e-007 4.96074e-007 1.46163e-007 1.4655 -1.808 0.9609 1.59028e-015 3.57812e-015 -0 4.9141 -1.269 0.3591 -3.18055e-015 1.78906e-014 9.54166e-015 3.1477 -1.685 0.8462 6.78521e-007 4.96074e-007 1.46163e-007 0.8055 -1.585 0.7955 1.59028e-015 3.57812e-015 -0 -1.7069 20.075 5.0056 -0.285961 -0.118371 5.02571 -13.6458 -0.047 -4.849 3.12164 -14.8755 12.978 -28.3255 -0.9759 2.2888 -20.4031 1.1462 50.8786 -22.1583 -0.53 10.8316 -4.67229 -2.03447 0.710914 -0.786 0.112 2.5817 4.56586e-007 -3.95725e-007 -1.42551e-006 -0.3601 -0.878 4.2331 1.59028e-015 -4.77083e-015 6.36111e-015 -1.8127 -1.216 2.2227 3.40007e-007 -2.47625e-007 6.95819e-008 -0.9571 1.114 1.7695 1.59028e-015 3.57812e-015 -6.36111e-015 -4.1246 0.487 4.1451 4.56586e-007 -3.95725e-007 -1.42551e-006 -3.4052 -1.454 2.7682 3.18055e-015 -8.74653e-015 -0 -1.4531 -1.795 1.2713 3.40007e-007 -2.47625e-007 6.95819e-008 -5.6954 0.21 2.1184 4.56586e-007 -3.95725e-007 -1.42551e-006 -3.9766 -1.54 2.3863 3.18055e-015 -8.74653e-015 -0 -1.4042 -1.926 1.125 3.40007e-007 -2.47625e-007 6.95819e-008 -2.0956 0.66 -0.3894 1.59028e-015 3.57812e-015 -6.36111e-015 -5.0395 -0.09 2.4971 4.56586e-007 -3.95725e-007 -1.42551e-006 -3.7921 -1.552 1.4806 3.18055e-015 -8.74653e-015 -0 -1.4655 -1.808 0.9609 3.40007e-007 -2.47625e-007 6.95819e-008 -4.9141 -1.269 0.3592 4.56586e-007 -3.95725e-007 -1.42551e-006 -3.1477 -1.685 0.8462 3.18055e-015 -8.74653e-015 -0 -0.8055 -1.585 0.7955 3.40007e-007 -2.47625e-007 6.95819e-008 8.367 -8.2066 0.5982 0.105813 0.0852134 0.175306 2.1923 -43.463 -0.4932 0.0667158 -0.294912 1.37851 0.7333 -45.8593 -2.6451 5.74441 28.8503 -1.78788 -8.367 -8.2066 0.5982 -0.107768 0.0849322 -0.175305 -2.1923 -43.463 -0.4931 -0.0686806 -0.293539 -1.38055 -0.7333 -45.8593 -2.6451 -5.74762 28.849 1.78726 
0.000236884 5.36962 10.1995 0 89.9969 -0 0 -1.186 -1.5018 -0.0151149 -4.8492 -0.0327297 0 9.964 0.2134 -0.033201 -9.6984 -0.0671113 0 13.134 -3.2573 -0.033201 -9.6984 -0.0671112 -6.93889e-018 20.686 -1.6905 11.4479 13.7278 22.2478 -3.55271e-015 7.238 -0.1237 -16.3352 14.411 44.1809 1.7069 20.075 5.0056 0.490587 -0.208466 -8.93814 13.6458 -0.047 -4.849 -13.1274 -23.6719 -28.2711 28.3255 -0.9759 2.2888 30.2363 -16.7233 -100.89 22.1583 -0.53 10.8316 8.30647 -3.55384 -1.22492 0.786 0.112 2.5817 3.18055e-015 -3.02153e-014 6.36111e-015 0.3601 -0.878 4.2331 -7.95139e-016 -2.62396e-014 -1.27222e-014 1.8127 -1.216 2.2227 -7.95139e-016 -2.46493e-014 3.18055e-015 0.9571 1.114 1.7695 3.18055e-015 -5.56597e-015 6.36111e-015 4.1246 0.487 4.1451 2.38542e-015 -2.54444e-014 3.18055e-015 3.4052 -1.454 2.7682 -3.8401e-030 -2.3059e-014 -9.54166e-015 1.4531 -1.795 1.2713 -1.59028e-015 -2.70347e-014 -6.36111e-015 5.6954 0.21 2.1184 2.38542e-015 -2.54444e-014 3.18055e-015 3.9766 -1.54 2.3863 -3.8401e-030 -2.3059e-014 -9.54166e-015 1.4042 -1.926 1.125 -1.59028e-015 -2.70347e-014 -6.36111e-015 2.0956 0.66 -0.3894 3.18055e-015 -5.56597e-015 6.36111e-015 5.0395 -0.09 2.4971 2.38542e-015 -2.54444e-014 3.18055e-015 3.7921 -1.552 1.4806 -3.8401e-030 -2.3059e-014 -9.54166e-015 1.4655 -1.808 0.9609 -1.59028e-015 -2.70347e-014 -6.36111e-015 4.9141 -1.269 0.3591 2.38542e-015 -2.54444e-014 3.18055e-015 3.1477 -1.685 0.8462 -3.8401e-030 -2.3059e-014 -9.54166e-015 0.8055 -1.585 0.7955 -1.59028e-015 -2.70347e-014 -6.36111e-015 -1.7069 20.075 5.0056 -0.494071 -0.20871 8.93463 -13.6458 -0.047 -4.849 13.3199 -23.5739 29.069 -28.3255 -0.9759 2.2888 -30.1897 -17.8898 100.003 -22.1583 -0.53 10.8316 -8.31399 -3.60097 1.15897 -0.786 0.112 2.5817 4.00896e-007 -6.52235e-008 -9.70344e-007 -0.3601 -0.878 4.2331 -7.26983e-007 1.6193e-007 -2.15562e-006 -1.8127 -1.216 2.2227 4.00896e-007 -6.52235e-008 -9.70344e-007 -0.9571 1.114 1.7695 -7.95139e-016 0 -3.18055e-015 -4.1246 0.487 4.1451 4.00896e-007 -6.52235e-008 -9.70344e-007 -3.4052 -1.454 2.7682 -7.26983e-007 1.6193e-007 -2.15562e-006 -1.4531 -1.795 1.2713 4.00896e-007 -6.52235e-008 -9.70344e-007 -5.6954 0.21 2.1184 4.00896e-007 -6.52235e-008 -9.70344e-007 -3.9766 -1.54 2.3863 -7.26983e-007 1.6193e-007 -2.15562e-006 -1.4042 -1.926 1.125 4.00896e-007 -6.52235e-008 -9.70344e-007 -2.0956 0.66 -0.3894 -7.95139e-016 0 -3.18055e-015 -5.0395 -0.09 2.4971 4.00896e-007 -6.52235e-008 -9.70344e-007 -3.7921 -1.552 1.4806 -7.26983e-007 1.6193e-007 -2.15562e-006 -1.4655 -1.808 0.9609 4.00896e-007 -6.52235e-008 -9.70344e-007 -4.9141 -1.269 0.3592 4.00896e-007 -6.52235e-008 -9.70344e-007 -3.1477 -1.685 0.8462 -7.26983e-007 1.6193e-007 -2.15562e-006 -0.8055 -1.585 0.7955 4.00896e-007 -6.52235e-008 -9.70344e-007 8.367 -8.2066 0.5982 3.79729 0.0629647 0.182542 2.1923 -43.463 -0.4932 0.128355 -0.308532 2.61307 0.7333 -45.8593 -2.6451 8.54382 51.0867 -4.47022 -8.367 -8.2066 0.5982 -3.80076 0.0624292 -0.182545 -2.1923 -43.463 -0.4931 -0.13181 -0.307034 -2.61667 -0.7333 -45.8593 -2.6451 -8.54889 51.0851 4.46867 
0.000249855 -0.134683 9.9274 -180 84.3783 -180 0 -1.186 -1.5018 -0.0166102 -5.15228 -0.0346832 -4.33681e-019 9.964 0.2134 -0.0365902 -10.3045 -0.0713087 0 13.134 -3.2573 -0.0365902 -10.3045 -0.0713087 -1.73472e-017 20.686 -1.6905 11.8015 14.4407 23.7214 -1.77636e-015 7.238 -0.1237 -18.0554 14.5828 47.0683 1.7069 20.075 5.0056 0.519091 -0.221149 -9.49678 13.6458 -0.047 -4.849 -15.034 -24.5612 -30.7553 28.3255 -0.9759 2.2888 30.0623 -20.2557 -107.885 22.1583 -0.53 10.8316 8.82689 -3.7735 -1.28585 0.786 0.112 2.5817 -7.97056e-007 2.81316e-007 1.05001e-007 0.3601 -0.878 4.2331 -2.38542e-015 4.77083e-015 9.54166e-015 1.8127 -1.216 2.2227 -7.97056e-007 2.81316e-007 1.05001e-007 0.9571 1.114 1.7695 1.59028e-015 3.18055e-015 -1.27222e-014 4.1246 0.487 4.1451 -7.97056e-007 2.81316e-007 1.05001e-007 3.4052 -1.454 2.7682 -1.59028e-015 4.77083e-015 3.18055e-015 1.4531 -1.795 1.2713 -7.97056e-007 2.81316e-007 1.05001e-007 5.6954 0.21 2.1184 -7.97056e-007 2.81316e-007 1.05001e-007 3.9766 -1.54 2.3863 -1.59028e-015 4.77083e-015 3.18055e-015 1.4042 -1.926 1.125 -7.97056e-007 2.81316e-007 1.05001e-007 2.0956 0.66 -0.3894 1.59028e-015 3.18055e-015 -1.27222e-014 5.0395 -0.09 2.4971 -7.97056e-007 2.81316e-007 1.05001e-007 3.7921 -1.552 1.4806 -1.59028e-015 4.77083e-015 3.18055e-015 1.4655 -1.808 0.9609 -7.97056e-007 2.81316e-007 1.05001e-007 4.9141 -1.269 0.3591 -7.97056e-007 2.81316e-007 1.05001e-007 3.1477 -1.685 0.8462 -1.59028e-015 4.77083e-015 3.18055e-015 0.8055 -1.585 0.7955 -7.97056e-007 2.81316e-007 1.05001e-007 -1.7069 20.075 5.0056 -0.522789 -0.221426 9.49305 -13.6458 -0.047 -4.849 15.222 -24.456 31.5536 -28.3255 -0.9759 2.2888 -29.8526 -21.3607 107.081 -22.1583 -0.53 10.8316 -8.83512 -3.82324 1.21551 -0.786 0.112 2.5817 4.38974e-008 2.80016e-007 -1.84419e-006 -0.3601 -0.878 4.2331 2.11508e-006 8.25781e-007 6.23084e-006 -1.8127 -1.216 2.2227 -4.77083e-015 1.59028e-015 9.54166e-015 -0.9571 1.114 1.7695 -7.95139e-016 0 -3.18055e-015 -4.1246 0.487 4.1451 4.38974e-008 2.80016e-007 -1.84419e-006 -3.4052 -1.454 2.7682 2.11508e-006 8.25781e-007 6.23084e-006 -1.4531 -1.795 1.2713 -4.77083e-015 3.18055e-015 9.54166e-015 -5.6954 0.21 2.1184 4.38974e-008 2.80016e-007 -1.84419e-006 -3.9766 -1.54 2.3863 2.11508e-006 8.25781e-007 6.23084e-006 -1.4042 -1.926 1.125 -4.77083e-015 3.18055e-015 9.54166e-015 -2.0956 0.66 -0.3894 -7.95139e-016 0 -3.18055e-015 -5.0395 -0.09 2.4971 4.38974e-008 2.80016e-007 -1.84419e-006 -3.7921 -1.552 1.4806 2.11508e-006 8.25781e-007 6.23084e-006 -1.4655 -1.808 0.9609 -4.77083e-015 3.18055e-015 9.54166e-015 -4.9141 -1.269 0.3592 4.38974e-008 2.80016e-007 -1.84419e-006 -3.1477 -1.685 0.8462 2.11508e-006 8.25781e-007 6.23084e-006 -0.8055 -1.585 0.7955 -4.77083e-015 3.18055e-015 9.54166e-015 8.367 -8.2066 0.5982 4.32325 0.0403211 0.182066 2.1923 -43.463 -0.4932 0.138735 -0.31192 2.81587 0.7333 -45.8593 -2.6451 9.2803 54.2669 -5.15878 -8.367 -8.2066 0.5982 -4.3269 0.0404747 -0.182078 -2.1923 -43.463 -0.4931 -0.142408 -0.311586 -2.81967 -0.7333 -45.8593 -2.6451 -9.28563 54.2657 5.15707 
